<svg xmlns="http://www.w3.org/2000/svg" width="1600" height="1000" viewBox="0 0 1600 1000">
<defs>
  <linearGradient id="bg" x1="0" y1="0" x2="1" y2="1">
    <stop offset="0" stop-color="#04101F"/><stop offset="1" stop-color="#0A2245"/>
  </linearGradient>
  <linearGradient id="gold" x1="0" y1="0" x2="1" y2="1">
    <stop offset="0" stop-color="#F5A623"/><stop offset="1" stop-color="#FFC456"/>
  </linearGradient>
  <linearGradient id="glass" x1="0" y1="0" x2="0" y2="1">
    <stop offset="0" stop-color="#ffffff" stop-opacity=".10"/>
    <stop offset="1" stop-color="#ffffff" stop-opacity=".03"/>
  </linearGradient>
  <linearGradient id="blueg" x1="0" y1="0" x2="1" y2="1">
    <stop offset="0" stop-color="#2E7BF6"/><stop offset="1" stop-color="#1B4C8C"/>
  </linearGradient>
  <radialGradient id="glow" cx=".5" cy=".5" r=".5">
    <stop offset="0" stop-color="#F5A623" stop-opacity=".30"/>
    <stop offset="1" stop-color="#F5A623" stop-opacity="0"/>
  </radialGradient>
  <filter id="sh" x="-30%" y="-30%" width="160%" height="160%">
    <feDropShadow dx="0" dy="26" stdDeviation="30" flood-color="#000" flood-opacity=".45"/>
  </filter>
  <filter id="sh2" x="-40%" y="-40%" width="180%" height="180%">
    <feDropShadow dx="0" dy="12" stdDeviation="14" flood-color="#000" flood-opacity=".35"/>
  </filter>
  <pattern id="grid" width="64" height="64" patternUnits="userSpaceOnUse">
    <path d="M64 0H0v64" fill="none" stroke="#ffffff" stroke-opacity=".045" stroke-width="1.2"/>
  </pattern>
  
</defs>
<rect width="1600" height="1000" fill="url(#bg)"/>
<rect width="1600" height="1000" fill="url(#grid)"/>
<ellipse cx="1330" cy="150" rx="620" ry="470" fill="url(#glow)"/>
<g transform="rotate(-8 490.0 630.0)" filter="url(#sh)"><rect x="300" y="250" width="380" height="760" rx="49.4" fill="#071A31" stroke="#ffffff" stroke-opacity=".16" stroke-width="2.4"/><rect x="312" y="262" width="356" height="736" rx="40.4" fill="#04101F"/><rect x="450.0" y="272" width="80" height="18" rx="9" fill="#ffffff" fill-opacity=".14"/><rect x="332" y="320" width="316" height="228.0" rx="18" fill="#2E7BF6" fill-opacity=".22"/><circle cx="490.0" cy="434.0" r="30" fill="#2E7BF6" fill-opacity=".85"/><rect x="332" y="558.0" width="316" height="14" rx="7" fill="#ffffff" fill-opacity=".26"/><rect x="332" y="588.0" width="246" height="14" rx="7" fill="#ffffff" fill-opacity=".16"/><rect x="332" y="618.0" width="174" height="14" rx="7" fill="#ffffff" fill-opacity=".11"/><rect x="332" y="664.0" width="316" height="60" rx="16" fill="#ffffff" fill-opacity=".05" stroke="#ffffff" stroke-opacity=".07"/><rect x="348" y="682.0" width="42" height="24" rx="8" fill="#2E7BF6" fill-opacity=".5"/><rect x="404" y="688.0" width="204" height="12" rx="6" fill="#ffffff" fill-opacity=".14"/><rect x="332" y="738.0" width="316" height="60" rx="16" fill="#ffffff" fill-opacity=".05" stroke="#ffffff" stroke-opacity=".07"/><rect x="348" y="756.0" width="42" height="24" rx="8" fill="#2E7BF6" fill-opacity=".5"/><rect x="404" y="762.0" width="204" height="12" rx="6" fill="#ffffff" fill-opacity=".14"/><rect x="324" y="938" width="332" height="52" rx="26" fill="#ffffff" fill-opacity=".06"/><circle cx="365.5" cy="964" r="9" fill="#2E7BF6" fill-opacity=".9"/><circle cx="448.5" cy="964" r="9" fill="#ffffff" fill-opacity=".2"/><circle cx="531.5" cy="964" r="9" fill="#ffffff" fill-opacity=".2"/><circle cx="614.5" cy="964" r="9" fill="#ffffff" fill-opacity=".2"/></g>
<g transform="rotate(6 1110.0 595.0)" filter="url(#sh)"><rect x="900" y="180" width="420" height="830" rx="54.6" fill="#071A31" stroke="#ffffff" stroke-opacity=".16" stroke-width="2.4"/><rect x="912" y="192" width="396" height="806" rx="45.6" fill="#04101F"/><rect x="1070.0" y="202" width="80" height="18" rx="9" fill="#ffffff" fill-opacity=".14"/><rect x="932" y="250" width="356" height="249.0" rx="18" fill="#F5A623" fill-opacity=".22"/><circle cx="1110.0" cy="374.5" r="30" fill="#F5A623" fill-opacity=".85"/><rect x="932" y="509.0" width="356" height="14" rx="7" fill="#ffffff" fill-opacity=".26"/><rect x="932" y="539.0" width="278" height="14" rx="7" fill="#ffffff" fill-opacity=".16"/><rect x="932" y="569.0" width="196" height="14" rx="7" fill="#ffffff" fill-opacity=".11"/><rect x="932" y="615.0" width="356" height="60" rx="16" fill="#ffffff" fill-opacity=".05" stroke="#ffffff" stroke-opacity=".07"/><rect x="948" y="633.0" width="42" height="24" rx="8" fill="#F5A623" fill-opacity=".5"/><rect x="1004" y="639.0" width="244" height="12" rx="6" fill="#ffffff" fill-opacity=".14"/><rect x="932" y="689.0" width="356" height="60" rx="16" fill="#ffffff" fill-opacity=".05" stroke="#ffffff" stroke-opacity=".07"/><rect x="948" y="707.0" width="42" height="24" rx="8" fill="#F5A623" fill-opacity=".5"/><rect x="1004" y="713.0" width="244" height="12" rx="6" fill="#ffffff" fill-opacity=".14"/><rect x="924" y="938" width="372" height="52" rx="26" fill="#ffffff" fill-opacity=".06"/><circle cx="970.5" cy="964" r="9" fill="#F5A623" fill-opacity=".9"/><circle cx="1063.5" cy="964" r="9" fill="#ffffff" fill-opacity=".2"/><circle cx="1156.5" cy="964" r="9" fill="#ffffff" fill-opacity=".2"/><circle cx="1249.5" cy="964" r="9" fill="#ffffff" fill-opacity=".2"/></g>
<g filter="url(#sh2)" transform="translate(230,120)">
  <rect width="230" height="96" rx="26" fill="url(#gold)"/>
  <text x="115" y="60" font-family="Sora,sans-serif" font-size="27" font-weight="800" fill="#04101F" text-anchor="middle">iOS + Android</text></g>
</svg>